<svg id="Capa_1" enable-background="new 0 0 512 512" height="512" viewBox="0 0 512 512" width="512" xmlns="http://www.w3.org/2000/svg"><g><path d="m76 512h380c5.523 0 10-4.478 10-10v-212c0-5.522-4.477-10-10-10-25.619 0-103.65 0-130 0v-220h10c5.523 0 10-4.478 10-10v-40c0-5.522-4.477-10-10-10h-95c-5.523 0-10 4.478-10 10s4.477 10 10 10h85v20h-260v-20h85c5.523 0 10-4.478 10-10s-4.477-10-10-10h-95c-5.523 0-10 4.478-10 10v40c0 5.522 4.477 10 10 10h10v442c0 5.522 4.477 10 10 10zm370-20h-180v-192h50v82c0 3.215 1.545 6.232 4.153 8.112 2.578 1.859 5.926 2.402 9.009 1.375l60-20c4.083-1.361 6.838-5.183 6.838-9.487v-62h50zm-70-137.208-40 13.334v-68.126h40zm-70-74.792h-50c-5.523 0-10 4.478-10 10v162h-90c-5.523 0-10 4.478-10 10s4.477 10 10 10h90v20h-160v-432h220z"/><path d="m116 260h160c5.523 0 10-4.478 10-10v-160c0-5.522-4.477-10-10-10h-160c-5.523 0-10 4.478-10 10v160c0 5.522 4.477 10 10 10zm10-80h60v60h-60zm80 60v-60h60v60zm60-80h-60v-60h60zm-80-60v60h-60v-60z"/><path d="m356 412c-5.523 0-10 4.478-10 10s4.477 10 10 10h60c5.523 0 10-4.478 10-10s-4.477-10-10-10z"/><path d="m416 452h-20c-5.523 0-10 4.478-10 10s4.477 10 10 10h20c5.523 0 10-4.478 10-10s-4.477-10-10-10z"/><path d="m136 280c-16.542 0-30 13.458-30 30s13.458 30 30 30 30-13.458 30-30-13.458-30-30-30zm0 40c-5.514 0-10-4.486-10-10s4.486-10 10-10 10 4.486 10 10-4.486 10-10 10z"/><circle cx="196" cy="10" r="10"/></g></svg>