<?xml version="1.0" encoding="iso-8859-1"?>
<!-- Generator: Adobe Illustrator 19.0.0, SVG Export Plug-In . SVG Version: 6.00 Build 0)  -->
<svg version="1.1" id="Layer_1" xmlns="http://www.w3.org/2000/svg" xmlns:xlink="http://www.w3.org/1999/xlink" x="0px" y="0px"
	 viewBox="0 0 512.004 512.004" style="enable-background:new 0 0 512.004 512.004;" xml:space="preserve">
<g>
	<g>
		<path d="M501.535,330.525h-34.424c0,27.262,0,45.609,0,56.865l-6.802-6.802l-6.802,6.802l-6.802-6.802l-6.802,6.802l-6.802-6.802
			l-6.802,6.802v-56.865h-34.424c-5.781,0-10.468,4.687-10.468,10.468v109.664c0,5.781,4.686,10.468,10.468,10.468h109.664
			c5.781,0,10.468-4.687,10.468-10.468V340.993C512.001,335.211,507.315,330.525,501.535,330.525z"/>
	</g>
</g>
<g>
	<g>
		<path d="M354.151,246.774c-26.257,14.157-30.689,17.991-42.483,17.35v166.937c0,11.839,9.598,21.437,21.437,21.437
			c11.839,0,21.437-9.598,21.437-21.437C354.54,246.466,354.151,246.774,354.151,246.774z"/>
	</g>
</g>
<g>
	<g>
		<path d="M95.842,39.912c-21.54,0-39.001,17.462-39.001,39.002c0.001,11.877,5.316,22.505,13.688,29.658
			c51.241,0-0.634-0.023,50.654-0.023c8.357-7.153,13.661-17.771,13.661-29.634C134.844,57.374,117.382,39.912,95.842,39.912z"/>
	</g>
</g>
<g>
	<g>
		<path d="M355.079,88.53c-11.911,0-83.947,0-95.901,0c-23.174,0-42.121,18.868-42.238,42.151v50.985l5.076-1.186
			c11.392-2.662,22.774,0.86,30.651,8.371V130.77c0-0.018,0-0.034,0.001-0.052c0.037-2.189,1.833-3.939,4.022-3.92
			c2.19,0.019,3.954,1.799,3.954,3.989v51.649c0,0,24.909-8.103,32.006-10.255c3.427-1.038,7.047,0.899,8.085,4.328l6.041,19.954
			l47.373-25.541v-42.585c0-2.003,1.624-3.627,3.627-3.627c1.995,0,3.615,1.611,3.627,3.607l0.224,56.206l-56.663,30.549
			c-8.684,4.682-11.929,15.517-7.246,24.201c4.685,8.689,15.522,11.927,24.201,7.246l66.048-35.609
			c5.781-3.117,9.386-9.156,9.386-15.724c0-6.405,0-57.422,0-64.594C397.237,107.398,378.272,88.53,355.079,88.53z"/>
	</g>
</g>
<g>
	<g>
		<path d="M284.057,246.637c-0.583-1.082-1.095-2.181-1.548-3.293l-2.582,0.782c-3.427,1.038-7.047-0.9-8.085-4.328l-8.965-29.608
			c0.531,6.213-0.701,12.276-3.346,17.611v31.92h0.008v171.342c0,11.839,9.598,21.437,21.437,21.437
			c11.839,0,21.437-9.598,21.437-21.437V262.3C294.625,259.573,288.064,254.068,284.057,246.637z"/>
	</g>
</g>
<g>
	<g>
		<path d="M237.205,245.5l-20.264,4.733v11.721c0,9.866,7.998,17.863,17.863,17.863c9.866,0,17.864-7.996,17.864-17.863v-24.823
			C248.496,241.123,243.237,244.091,237.205,245.5z"/>
	</g>
</g>
<g>
	<g>
		<circle cx="307.285" cy="39.706" r="37.022"/>
	</g>
</g>
<g>
	<g>
		<path d="M247.937,208.71c-2.364-10.121-12.488-16.406-22.605-14.044l-35.305,8.247v-32.706
			c-0.122-24.433-20.1-44.311-44.534-44.311c-12.291,0-89.07,0-100.264,0c-24.433,0-45.105,19.878-45.229,44.31v138.251
			c-0.052,10.393,8.33,18.861,18.724,18.913c0.032,0,0.065,0,0.097,0c10.349,0,18.764-8.364,18.816-18.724V170.394
			c0.011-2.25,1.841-4.066,4.091-4.061s4.071,1.831,4.071,4.081l0.009,316.324c0,12.472,10.11,22.582,22.582,22.582
			s22.582-10.11,22.582-22.582v-180.5h9.75v180.5c0,12.472,10.11,22.582,22.582,22.582s21.469-10.11,21.469-22.582
			c0,0,0-193.808,0-316.419c0-2.1,1.699-3.802,3.799-3.808c2.1-0.004,3.807,1.689,3.817,3.789v56.332
			c0,12.068,11.264,21.093,23.099,18.325l58.403-13.643C244.013,228.951,250.301,218.831,247.937,208.71z"/>
	</g>
</g>
<g>
</g>
<g>
</g>
<g>
</g>
<g>
</g>
<g>
</g>
<g>
</g>
<g>
</g>
<g>
</g>
<g>
</g>
<g>
</g>
<g>
</g>
<g>
</g>
<g>
</g>
<g>
</g>
<g>
</g>
</svg>
